<svg width="7" height="26" viewBox="0 0 7 26" fill="none" xmlns="http://www.w3.org/2000/svg">
<path d="M6.1579 22.9211C6.1579 24.6215 4.7794 26 3.07895 26C1.37849 26 0 24.6215 0 22.9211C0 21.2206 1.37849 19.8421 3.07895 19.8421C4.7794 19.8421 6.1579 21.2206 6.1579 22.9211Z" fill="black"/>
<path d="M6.1579 12.6579C6.1579 14.3583 4.7794 15.7368 3.07895 15.7368C1.37849 15.7368 0 14.3583 0 12.6579C0 10.9574 1.37849 9.57895 3.07895 9.57895C4.7794 9.57895 6.1579 10.9574 6.1579 12.6579Z" fill="black"/>
<path d="M6.1579 3.07895C6.1579 4.7794 4.7794 6.1579 3.07895 6.1579C1.37849 6.1579 0 4.7794 0 3.07895C0 1.37849 1.37849 0 3.07895 0C4.7794 0 6.1579 1.37849 6.1579 3.07895Z" fill="black"/>
</svg>
